<svg width="284" height="61" viewBox="0 0 284 61" fill="none" xmlns="http://www.w3.org/2000/svg">
<path d="M18.7451 26.7212C19.5508 26.8644 20.5623 26.936 21.7798 26.936C24.8413 26.936 27.3299 25.7992 29.2456 23.5254C31.1613 21.2337 32.1191 18.3423 32.1191 14.8511C32.1191 11.3599 30.9465 8.59375 28.6011 6.55273C26.2736 4.49382 22.8092 3.46436 18.208 3.46436C16.2207 3.46436 14.4661 3.6792 12.9443 4.10889C11.4225 4.53857 10.223 5.10254 9.3457 5.80078C8.48633 6.49902 7.8418 7.25098 7.41211 8.05664C6.98242 8.8444 6.76758 9.65902 6.76758 10.5005C6.76758 11.2703 6.96452 11.888 7.3584 12.3535C7.75228 12.8011 8.28939 13.0249 8.96973 13.0249C9.14876 13.0249 9.31885 13.016 9.47998 12.998C9.64111 12.9622 9.74854 12.9264 9.80225 12.8906L9.90967 12.8638C9.94548 12.9712 9.96338 13.1323 9.96338 13.3472C9.96338 14.0991 9.5874 14.8063 8.83545 15.4688C8.0835 16.1133 7.06299 16.4355 5.77393 16.4355C4.00146 16.4355 2.59603 15.9342 1.55762 14.9316C0.519206 13.929 0 12.5952 0 10.9302C0 9.82015 0.232747 8.76383 0.698242 7.76123C1.14583 6.74072 1.86198 5.78288 2.84668 4.8877C3.83138 3.99251 5.03092 3.2137 6.44531 2.55127C7.8597 1.88883 9.5874 1.36963 11.6284 0.993652C13.6694 0.617676 15.9163 0.429688 18.3691 0.429688C22.0931 0.429688 25.3516 0.805664 28.1445 1.55762C30.9375 2.29167 33.1665 3.33903 34.8315 4.69971C36.4966 6.04248 37.7319 7.59115 38.5376 9.3457C39.3612 11.0824 39.7729 13.0249 39.7729 15.1733C39.7729 19.5418 38.2511 23.1047 35.2075 25.8618C32.1639 28.6011 28.1266 29.9707 23.0957 29.9707C21.4486 29.9707 19.8372 29.8364 18.2617 29.5679L17.1606 35.9058C16.9637 37.0516 16.8563 38.0632 16.8384 38.9404C16.8384 39.7998 16.8831 40.3817 16.9727 40.686L17.1069 41.1426C16.5161 41.5007 15.4688 41.6797 13.9648 41.6797C11.9775 41.6797 10.6974 41.2321 10.1245 40.3369C9.5695 39.4417 9.47998 37.8931 9.85596 35.6909L13.9648 11.9775C14.1618 10.8496 14.2603 9.85596 14.2603 8.99658C14.2782 8.13721 14.2424 7.55534 14.1528 7.25098L14.0186 6.82129C14.6094 6.44531 15.6567 6.25732 17.1606 6.25732C19.1479 6.25732 20.4281 6.71387 21.001 7.62695C21.5739 8.52214 21.6724 10.0618 21.2964 12.2461L18.7451 26.7212Z" fill="url(#paint0_linear_3235_3609)"/>
<path d="M64.9902 32.0654C64.6859 33.6768 64.7485 34.8853 65.1782 35.6909C65.6079 36.4966 66.333 36.8994 67.3535 36.8994C68.3382 36.8994 69.3677 36.4697 70.4419 35.6104C71.534 34.7331 72.4292 33.5693 73.1274 32.1191C73.5034 32.1191 73.7899 32.2355 73.9868 32.4683C74.1838 32.701 74.2464 33.0591 74.1748 33.5425C74.0674 34.1512 73.8346 34.8136 73.4766 35.5298C73.1185 36.228 72.6261 36.9442 71.9995 37.6782C71.3908 38.3944 70.7104 39.0568 69.9585 39.6655C69.2065 40.2563 68.3382 40.7397 67.3535 41.1157C66.3688 41.4917 65.3662 41.6797 64.3457 41.6797C62.5016 41.6797 60.9977 41.1336 59.834 40.0415C58.6702 38.9494 58.0257 37.4276 57.9004 35.4761C56.7904 37.4992 55.5103 39.0389 54.0601 40.0952C52.6099 41.1515 51.0881 41.6797 49.4946 41.6797C47.1134 41.6797 45.1709 40.874 43.667 39.2627C42.1631 37.6514 41.4111 35.306 41.4111 32.2266C41.4111 29.8454 41.6797 27.6522 42.2168 25.647C42.736 23.6418 43.4342 21.9499 44.3115 20.5713C45.2067 19.1748 46.2362 17.9932 47.3999 17.0264C48.5815 16.0417 49.8079 15.3255 51.0791 14.8779C52.3682 14.4124 53.6662 14.1797 54.9731 14.1797C57.5155 14.1797 59.5028 15.0749 60.9351 16.8652C61.3826 15.8805 61.9735 15.1912 62.7075 14.7974C63.4595 14.3856 64.5158 14.1797 65.8765 14.1797C66.4315 14.1797 66.9328 14.2244 67.3804 14.314C67.8459 14.4035 68.1681 14.493 68.3472 14.5825L68.6157 14.7168C68.1323 15.3792 67.7116 16.7041 67.3535 18.6914L64.9902 32.0654ZM51.6968 36.8994C52.6278 36.8994 53.5319 36.4518 54.4092 35.5566C55.2865 34.6615 56.0474 33.4977 56.6919 32.0654C57.3543 30.6331 57.9183 29.165 58.3838 27.6611C58.8672 26.1393 59.2521 24.6354 59.5386 23.1494L60.0488 20.5713C59.279 18.7988 58.0705 17.9126 56.4233 17.9126C55.4744 17.9126 54.5256 18.2617 53.5767 18.96C52.6457 19.6403 51.7952 20.5802 51.0254 21.7798C50.2734 22.9793 49.6558 24.5101 49.1724 26.3721C48.689 28.2161 48.4473 30.2035 48.4473 32.334C48.4473 33.8558 48.7248 35.0016 49.2798 35.7715C49.8527 36.5234 50.6584 36.8994 51.6968 36.8994Z" fill="url(#paint1_linear_3235_3609)"/>
<path d="M81.748 22.0483C83.3773 19.3091 85.0423 17.3128 86.7432 16.0596C88.4619 14.8063 90.0285 14.1797 91.4429 14.1797C92.8036 14.1797 93.8688 14.5557 94.6387 15.3076C95.4264 16.0417 95.8203 17.098 95.8203 18.4766C95.8203 20.0163 95.3906 21.2785 94.5312 22.2632C93.6898 23.2479 92.5977 23.7402 91.2549 23.7402C90.8252 23.7402 90.4045 23.7134 89.9927 23.6597C89.5809 23.606 89.2765 23.5522 89.0796 23.4985L88.7842 23.418C89.2676 22.5765 89.5093 21.6634 89.5093 20.6787C89.5093 19.873 89.1244 19.4702 88.3545 19.4702C87.2982 19.4702 85.9912 20.5444 84.4336 22.6929C83.2161 24.3937 82.1956 26.2826 81.3721 28.3594C80.5485 30.4183 79.8324 33.2292 79.2236 36.792C79.0625 37.7588 78.9819 38.6092 78.9819 39.3433C78.9819 40.0773 79.0177 40.5697 79.0894 40.8203L79.2236 41.1963C78.6686 41.5186 77.7108 41.6797 76.3501 41.6797C74.327 41.6797 73.0558 41.2858 72.5366 40.498C72.0174 39.6924 71.9369 38.269 72.2949 36.228L75.1953 19.4165C75.3744 18.396 75.4639 17.4919 75.4639 16.7041C75.4818 15.8984 75.4549 15.3613 75.3833 15.0928L75.249 14.6631C75.804 14.3408 76.7619 14.1797 78.1226 14.1797C80.1457 14.1797 81.4168 14.6004 81.936 15.4419C82.4552 16.2655 82.5358 17.6619 82.1777 19.6313L81.748 22.0483Z" fill="url(#paint2_linear_3235_3609)"/>
<path d="M115.881 55.6982C115.702 56.7188 115.604 57.6229 115.586 58.4106C115.586 59.1984 115.631 59.7266 115.72 59.9951L115.828 60.4248C115.273 60.765 114.315 60.9351 112.954 60.9351C110.931 60.9351 109.651 60.5322 109.114 59.7266C108.595 58.9209 108.514 57.5065 108.872 55.4834L112.229 36.6309C109.991 39.9967 107.413 41.6797 104.495 41.6797C102.113 41.6797 100.171 40.874 98.667 39.2627C97.1631 37.6514 96.4111 35.306 96.4111 32.2266C96.4111 29.8454 96.6797 27.6522 97.2168 25.647C97.736 23.6418 98.4342 21.9499 99.3115 20.5713C100.207 19.1748 101.236 17.9932 102.4 17.0264C103.582 16.0417 104.808 15.3255 106.079 14.8779C107.368 14.4124 108.666 14.1797 109.973 14.1797C112.515 14.1797 114.521 15.0928 115.989 16.9189C116.401 15.9163 116.982 15.2091 117.734 14.7974C118.504 14.3856 119.569 14.1797 120.93 14.1797C121.485 14.1797 121.986 14.2244 122.434 14.314C122.9 14.4035 123.222 14.493 123.401 14.5825L123.669 14.7168C123.186 15.3792 122.765 16.7041 122.407 18.6914L115.881 55.6982ZM106.697 36.8994C107.628 36.8994 108.532 36.4518 109.409 35.5566C110.286 34.6615 111.047 33.4977 111.692 32.0654C112.354 30.6331 112.918 29.165 113.384 27.6611C113.867 26.1393 114.252 24.6354 114.539 23.1494L115.049 20.5713C114.279 18.7988 113.07 17.9126 111.423 17.9126C110.474 17.9126 109.526 18.2617 108.577 18.96C107.646 19.6403 106.795 20.5802 106.025 21.7798C105.273 22.9793 104.656 24.5101 104.172 26.3721C103.689 28.2161 103.447 30.2035 103.447 32.334C103.447 33.8558 103.725 35.0016 104.28 35.7715C104.853 36.5234 105.658 36.8994 106.697 36.8994Z" fill="url(#paint3_linear_3235_3609)"/>
<path d="M143.14 34.8047C143.14 34.0706 143.158 33.444 143.193 32.9248C142.334 34.6257 141.51 35.9863 140.723 37.0068C139.559 38.6003 138.35 39.7819 137.097 40.5518C135.844 41.3037 134.465 41.6797 132.961 41.6797C131.135 41.6797 129.676 41.0978 128.584 39.9341C127.51 38.7524 126.973 37.2038 126.973 35.2881C126.973 33.4261 127.196 31.1792 127.644 28.5474L129.229 19.4165C129.408 18.396 129.497 17.4919 129.497 16.7041C129.515 15.8984 129.488 15.3613 129.417 15.0928L129.282 14.6631C129.837 14.3408 130.795 14.1797 132.156 14.1797C134.179 14.1797 135.45 14.5825 135.969 15.3882C136.488 16.1759 136.569 17.5903 136.211 19.6313L134.009 32.334C133.74 33.8558 133.767 35.0016 134.089 35.7715C134.43 36.5234 135.011 36.8994 135.835 36.8994C136.945 36.8994 138.297 35.673 139.89 33.2202C141.09 31.394 142.209 29.1471 143.247 26.4795C144.303 23.7939 145.037 21.2516 145.449 18.8525C145.592 17.9574 145.664 17.1606 145.664 16.4624C145.664 15.7642 145.628 15.2897 145.557 15.0391L145.449 14.6631C146.004 14.3408 146.962 14.1797 148.323 14.1797C150.346 14.1797 151.617 14.5825 152.136 15.3882C152.655 16.1759 152.736 17.5903 152.378 19.6313L150.229 32.0654C149.71 35.2881 150.498 36.8994 152.593 36.8994C153.577 36.8994 154.607 36.4697 155.681 35.6104C156.773 34.7331 157.668 33.5693 158.367 32.1191C158.743 32.1191 159.029 32.2355 159.226 32.4683C159.423 32.701 159.486 33.0591 159.414 33.5425C159.307 34.1512 159.074 34.8136 158.716 35.5298C158.358 36.228 157.865 36.9442 157.239 37.6782C156.63 38.3944 155.95 39.0568 155.198 39.6655C154.446 40.2563 153.577 40.7397 152.593 41.1157C151.608 41.4917 150.605 41.6797 149.585 41.6797C147.651 41.6797 146.094 41.0799 144.912 39.8804C143.73 38.6629 143.14 36.971 143.14 34.8047Z" fill="url(#paint4_linear_3235_3609)"/>
<path d="M174.238 2.52441C174.793 1.64714 175.438 1.01156 176.172 0.617676C176.906 0.205892 177.9 0 179.153 0C179.762 0 180.334 0.0447591 180.872 0.134277C181.427 0.223796 181.829 0.313314 182.08 0.402832L182.456 0.537109L174.91 8.40576C174.05 9.31885 173.039 9.77539 171.875 9.77539C171.463 9.77539 171.087 9.74854 170.747 9.69482C170.425 9.62321 170.201 9.56055 170.076 9.50684L169.861 9.39941L174.238 2.52441ZM169.673 41.6797C166.003 41.6797 163.013 40.6144 160.703 38.4839C158.411 36.3534 157.266 33.4619 157.266 29.8096C157.266 27.4642 157.695 25.2889 158.555 23.2837C159.396 21.2785 160.506 19.6313 161.885 18.3423C163.281 17.0353 164.848 16.0148 166.584 15.2808C168.339 14.5467 170.138 14.1797 171.982 14.1797C174.596 14.1797 176.557 14.7437 177.864 15.8716C179.189 16.9995 179.851 18.3423 179.851 19.8999C179.851 24.6981 174.704 28.0729 164.409 30.0244C164.57 32.1549 165.349 33.9095 166.746 35.2881C168.16 36.6488 170.004 37.3291 172.278 37.3291C173.674 37.3291 174.981 37.1769 176.199 36.8726C177.416 36.5503 178.455 36.1206 179.314 35.5835C180.173 35.0464 180.898 34.4914 181.489 33.9185C182.08 33.3455 182.581 32.7458 182.993 32.1191C183.781 32.1191 184.076 32.5936 183.879 33.5425C183.772 34.0438 183.486 34.6346 183.02 35.3149C182.572 35.9953 181.919 36.7114 181.06 37.4634C180.218 38.1974 179.26 38.8778 178.186 39.5044C177.112 40.131 175.823 40.6502 174.319 41.062C172.815 41.4738 171.266 41.6797 169.673 41.6797ZM172.036 16.9189C171.23 16.9189 170.416 17.1517 169.592 17.6172C168.787 18.0827 168.026 18.7451 167.31 19.6045C166.593 20.446 165.976 21.556 165.457 22.9346C164.937 24.2952 164.606 25.7992 164.463 27.4463C167.668 26.6943 170.049 25.5575 171.606 24.0356C173.182 22.4959 173.97 20.7682 173.97 18.8525C173.97 18.2796 173.791 17.8141 173.433 17.4561C173.075 17.098 172.609 16.9189 172.036 16.9189Z" fill="url(#paint5_linear_3235_3609)"/>
<path d="M205.659 32.0654C205.355 33.6768 205.417 34.8853 205.847 35.6909C206.277 36.4966 207.002 36.8994 208.022 36.8994C209.007 36.8994 210.037 36.4697 211.111 35.6104C212.203 34.7331 213.098 33.5693 213.796 32.1191C214.172 32.1191 214.459 32.2355 214.656 32.4683C214.853 32.701 214.915 33.0591 214.844 33.5425C214.736 34.1512 214.504 34.8136 214.146 35.5298C213.787 36.228 213.295 36.9442 212.668 37.6782C212.06 38.3944 211.379 39.0568 210.627 39.6655C209.875 40.2563 209.007 40.7397 208.022 41.1157C207.038 41.4917 206.035 41.6797 205.015 41.6797C203.171 41.6797 201.667 41.1336 200.503 40.0415C199.339 38.9494 198.695 37.4276 198.569 35.4761C197.459 37.4992 196.179 39.0389 194.729 40.0952C193.279 41.1515 191.757 41.6797 190.164 41.6797C187.782 41.6797 185.84 40.874 184.336 39.2627C182.832 37.6514 182.08 35.306 182.08 32.2266C182.08 29.8454 182.349 27.6522 182.886 25.647C183.405 23.6418 184.103 21.9499 184.98 20.5713C185.876 19.1748 186.905 17.9932 188.069 17.0264C189.25 16.0417 190.477 15.3255 191.748 14.8779C193.037 14.4124 194.335 14.1797 195.642 14.1797C198.184 14.1797 200.172 15.0749 201.604 16.8652C202.052 15.8805 202.642 15.1912 203.376 14.7974C204.128 14.3856 205.185 14.1797 206.545 14.1797C207.1 14.1797 207.602 14.2244 208.049 14.314C208.515 14.4035 208.837 14.493 209.016 14.5825L209.285 14.7168C208.801 15.3792 208.381 16.7041 208.022 18.6914L205.659 32.0654ZM192.366 36.8994C193.297 36.8994 194.201 36.4518 195.078 35.5566C195.955 34.6615 196.716 33.4977 197.361 32.0654C198.023 30.6331 198.587 29.165 199.053 27.6611C199.536 26.1393 199.921 24.6354 200.208 23.1494L200.718 20.5713C199.948 18.7988 198.739 17.9126 197.092 17.9126C196.143 17.9126 195.195 18.2617 194.246 18.96C193.315 19.6403 192.464 20.5802 191.694 21.7798C190.942 22.9793 190.325 24.5101 189.841 26.3721C189.358 28.2161 189.116 30.2035 189.116 32.334C189.116 33.8558 189.394 35.0016 189.949 35.7715C190.522 36.5234 191.327 36.8994 192.366 36.8994Z" fill="url(#paint6_linear_3235_3609)"/>
<path d="M252.28 36.8994C253.372 36.8994 254.429 36.4787 255.449 35.6372C256.47 34.7778 257.338 33.6051 258.054 32.1191C258.43 32.1191 258.717 32.2355 258.914 32.4683C259.111 32.701 259.173 33.0591 259.102 33.5425C258.976 34.2586 258.636 35.0732 258.081 35.9863C257.526 36.8994 256.837 37.7856 256.013 38.645C255.19 39.5044 254.187 40.2295 253.005 40.8203C251.824 41.3932 250.633 41.6797 249.434 41.6797C247.375 41.6797 245.745 41.0531 244.546 39.7998C243.364 38.5466 242.773 36.8815 242.773 34.8047C242.773 33.9632 243.051 31.8774 243.606 28.5474L244.626 22.478C245.02 20.1685 244.582 19.0137 243.311 19.0137C242.397 19.0137 241.368 19.8014 240.222 21.377C239.076 22.9525 237.984 25.1009 236.946 27.8223C235.925 30.5257 235.138 33.3993 234.583 36.4429C234.403 37.4634 234.305 38.3765 234.287 39.1821C234.287 39.9699 234.332 40.498 234.421 40.7666L234.529 41.1963C233.974 41.5186 233.016 41.6797 231.655 41.6797C229.632 41.6797 228.361 41.2858 227.842 40.498C227.323 39.6924 227.242 38.269 227.6 36.228L230.017 22.478C230.232 21.2964 230.241 20.4281 230.044 19.873C229.847 19.3001 229.417 19.0137 228.755 19.0137C227.842 19.0137 226.821 19.7477 225.693 21.2158C224.583 22.666 223.491 24.7518 222.417 27.4731C221.361 30.1945 220.537 33.1844 219.946 36.4429C219.767 37.4634 219.669 38.3765 219.651 39.1821C219.651 39.9699 219.687 40.498 219.758 40.7666L219.893 41.1963C219.338 41.5186 218.38 41.6797 217.019 41.6797C214.996 41.6797 213.725 41.2858 213.206 40.498C212.686 39.6924 212.606 38.269 212.964 36.228L215.864 19.4165C216.043 18.396 216.133 17.4919 216.133 16.7041C216.151 15.8984 216.124 15.3613 216.052 15.0928L215.918 14.6631C216.473 14.3408 217.431 14.1797 218.792 14.1797C220.815 14.1797 222.086 14.5825 222.605 15.3882C223.124 16.1759 223.205 17.5903 222.847 19.6313L222.632 20.9473C223.312 19.8014 224.064 18.763 224.888 17.832C225.711 16.8831 226.723 16.0417 227.922 15.3076C229.122 14.5557 230.312 14.1797 231.494 14.1797C233.231 14.1797 234.618 14.6899 235.657 15.7104C236.695 16.731 237.214 18.1274 237.214 19.8999C237.214 20.0252 237.205 20.2222 237.188 20.4907C237.17 20.7593 237.161 20.9652 237.161 21.1084C238.217 19.2464 239.542 17.6261 241.135 16.2476C242.729 14.869 244.412 14.1797 246.184 14.1797C247.903 14.1797 249.272 14.6989 250.293 15.7373C251.331 16.7578 251.851 18.1274 251.851 19.8462C251.851 20.7414 251.68 22.2274 251.34 24.3042L250.024 32.0654C249.487 35.2881 250.239 36.8994 252.28 36.8994Z" fill="url(#paint7_linear_3235_3609)"/>
<path d="M269.36 41.6797C265.69 41.6797 262.7 40.6144 260.391 38.4839C258.099 36.3534 256.953 33.4619 256.953 29.8096C256.953 27.4642 257.383 25.2889 258.242 23.2837C259.084 21.2785 260.194 19.6313 261.572 18.3423C262.969 17.0353 264.535 16.0148 266.272 15.2808C268.027 14.5467 269.826 14.1797 271.67 14.1797C274.284 14.1797 276.244 14.7437 277.551 15.8716C278.876 16.9995 279.539 18.3423 279.539 19.8999C279.539 24.6981 274.391 28.0729 264.097 30.0244C264.258 32.1549 265.037 33.9095 266.433 35.2881C267.848 36.6488 269.692 37.3291 271.965 37.3291C273.362 37.3291 274.669 37.1769 275.886 36.8726C277.104 36.5503 278.142 36.1206 279.001 35.5835C279.861 35.0464 280.586 34.4914 281.177 33.9185C281.768 33.3455 282.269 32.7458 282.681 32.1191C283.468 32.1191 283.764 32.5936 283.567 33.5425C283.459 34.0438 283.173 34.6346 282.708 35.3149C282.26 35.9953 281.606 36.7114 280.747 37.4634C279.906 38.1974 278.948 38.8778 277.874 39.5044C276.799 40.131 275.51 40.6502 274.006 41.062C272.502 41.4738 270.954 41.6797 269.36 41.6797ZM271.724 16.9189C270.918 16.9189 270.103 17.1517 269.28 17.6172C268.474 18.0827 267.713 18.7451 266.997 19.6045C266.281 20.446 265.663 21.556 265.144 22.9346C264.625 24.2952 264.294 25.7992 264.15 27.4463C267.355 26.6943 269.736 25.5575 271.294 24.0356C272.869 22.4959 273.657 20.7682 273.657 18.8525C273.657 18.2796 273.478 17.8141 273.12 17.4561C272.762 17.098 272.297 16.9189 271.724 16.9189Z" fill="url(#paint8_linear_3235_3609)"/>
<defs>
<linearGradient id="paint0_linear_3235_3609" x1="142.253" y1="-17.3203" x2="142.253" y2="60.6797" gradientUnits="userSpaceOnUse">
<stop offset="0.275" stop-color="#00A1FF"/>
<stop offset="0.6" stop-color="#003099"/>
</linearGradient>
<linearGradient id="paint1_linear_3235_3609" x1="142.253" y1="-17.3203" x2="142.253" y2="60.6797" gradientUnits="userSpaceOnUse">
<stop offset="0.37" stop-color="#00A1FF"/>
<stop offset="0.695" stop-color="#003099"/>
</linearGradient>
<linearGradient id="paint2_linear_3235_3609" x1="142.253" y1="-17.3203" x2="142.253" y2="60.6797" gradientUnits="userSpaceOnUse">
<stop offset="0.37" stop-color="#00A1FF"/>
<stop offset="0.695" stop-color="#003099"/>
</linearGradient>
<linearGradient id="paint3_linear_3235_3609" x1="142.253" y1="-17.3203" x2="142.253" y2="60.6797" gradientUnits="userSpaceOnUse">
<stop offset="0.37" stop-color="#00A1FF"/>
<stop offset="0.695" stop-color="#003099"/>
</linearGradient>
<linearGradient id="paint4_linear_3235_3609" x1="142.253" y1="-17.3203" x2="142.253" y2="60.6797" gradientUnits="userSpaceOnUse">
<stop offset="0.37" stop-color="#00A1FF"/>
<stop offset="0.695" stop-color="#003099"/>
</linearGradient>
<linearGradient id="paint5_linear_3235_3609" x1="142.253" y1="-17.3203" x2="142.253" y2="60.6797" gradientUnits="userSpaceOnUse">
<stop offset="0.37" stop-color="#00A1FF"/>
<stop offset="0.695" stop-color="#003099"/>
</linearGradient>
<linearGradient id="paint6_linear_3235_3609" x1="142.253" y1="-17.3203" x2="142.253" y2="60.6797" gradientUnits="userSpaceOnUse">
<stop offset="0.37" stop-color="#00A1FF"/>
<stop offset="0.695" stop-color="#003099"/>
</linearGradient>
<linearGradient id="paint7_linear_3235_3609" x1="142.253" y1="-17.3203" x2="142.253" y2="60.6797" gradientUnits="userSpaceOnUse">
<stop offset="0.37" stop-color="#00A1FF"/>
<stop offset="0.695" stop-color="#003099"/>
</linearGradient>
<linearGradient id="paint8_linear_3235_3609" x1="142.253" y1="-17.3203" x2="142.253" y2="60.6797" gradientUnits="userSpaceOnUse">
<stop offset="0.37" stop-color="#00A1FF"/>
<stop offset="0.695" stop-color="#003099"/>
</linearGradient>
</defs>
</svg>
