<svg width="325" height="70" viewBox="0 0 325 70" fill="none" xmlns="http://www.w3.org/2000/svg">
<path d="M21.4796 30.6963C22.4028 30.8609 23.5619 30.9431 24.9569 30.9431C28.465 30.9431 31.3167 29.6371 33.5118 27.0251C35.707 24.3925 36.8045 21.071 36.8045 17.0604C36.8045 13.0498 35.4608 9.87219 32.7733 7.52755C30.1063 5.16233 26.1366 3.97973 20.8641 3.97973C18.5869 3.97973 16.5764 4.22653 14.8326 4.72014C13.0888 5.21375 11.7143 5.86161 10.709 6.66373C9.72427 7.46584 8.98572 8.32966 8.49335 9.25518C8.00099 10.1601 7.7548 11.0959 7.7548 12.0626C7.7548 12.947 7.98047 13.6565 8.43181 14.1913C8.88315 14.7055 9.4986 14.9625 10.2782 14.9625C10.4833 14.9625 10.6782 14.9523 10.8629 14.9317C11.0475 14.8906 11.1706 14.8494 11.2322 14.8083L11.3552 14.7774C11.3963 14.9008 11.4168 15.0859 11.4168 15.3327C11.4168 16.1966 10.986 17.009 10.1243 17.7699C9.26268 18.5104 8.0933 18.8806 6.6162 18.8806C4.58518 18.8806 2.97473 18.3047 1.78484 17.1529C0.594945 16.0012 0 14.4689 0 12.5562C0 11.281 0.2667 10.0676 0.800098 8.91582C1.31298 7.7435 2.1336 6.64316 3.26194 5.61481C4.39028 4.58646 5.76481 3.69179 7.38552 2.93081C9.00624 2.16983 10.986 1.57338 13.3247 1.14147C15.6635 0.709564 18.2381 0.49361 21.0487 0.49361C25.3159 0.49361 29.0497 0.925518 32.2501 1.78933C35.4505 2.63258 38.0047 3.83576 39.9126 5.39885C41.8205 6.94138 43.2361 8.72044 44.1593 10.736C45.103 12.731 45.5748 14.9625 45.5748 17.4306C45.5748 22.4489 43.831 26.5418 40.3434 29.7091C36.8558 32.8559 32.2296 34.4293 26.4648 34.4293C24.5774 34.4293 22.731 34.275 20.9257 33.9665L19.664 41.2472C19.4383 42.5635 19.3152 43.7256 19.2947 44.7334C19.2947 45.7206 19.346 46.389 19.4485 46.7387L19.6024 47.2631C18.9254 47.6745 17.7253 47.8801 16.002 47.8801C13.7248 47.8801 12.2579 47.3659 11.6014 46.3376C10.9655 45.3092 10.8629 43.5302 11.2937 41.0004L16.002 13.7594C16.2276 12.4636 16.3405 11.3222 16.3405 10.3349C16.361 9.34773 16.32 8.6793 16.2174 8.32966L16.0635 7.83605C16.7405 7.40414 17.9407 7.18819 19.664 7.18819C21.9412 7.18819 23.408 7.71265 24.0645 8.76157C24.721 9.78992 24.8338 11.5587 24.403 14.0679L21.4796 30.6963Z" fill="url(#paint0_linear_2135_2894)"/>
<path d="M74.4707 36.8356C74.1219 38.6866 74.1937 40.0749 74.6861 41.0004C75.1785 41.926 76.0094 42.3887 77.1787 42.3887C78.3071 42.3887 79.4867 41.8951 80.7176 40.9079C81.9691 39.9001 82.9948 38.5632 83.7949 36.8973C84.2258 36.8973 84.554 37.031 84.7797 37.2984C85.0053 37.5657 85.0771 37.9771 84.9951 38.5324C84.872 39.2317 84.6053 39.9927 84.195 40.8153C83.7847 41.6175 83.2205 42.4401 82.5025 43.2834C81.8049 44.1061 81.0254 44.8671 80.1637 45.5663C79.3021 46.245 78.3071 46.8004 77.1787 47.2323C76.0504 47.6642 74.9015 47.8801 73.7322 47.8801C71.6191 47.8801 69.8958 47.2528 68.5623 45.9982C67.2288 44.7436 66.4902 42.9954 66.3466 40.7536C65.0747 43.0777 63.6078 44.8465 61.9461 46.0599C60.2843 47.2734 58.5405 47.8801 56.7147 47.8801C53.9861 47.8801 51.7602 46.9546 50.0369 45.1036C48.3136 43.2525 47.452 40.5583 47.452 37.0207C47.452 34.2853 47.7597 31.7658 48.3752 29.4623C48.9701 27.1588 49.7702 25.2152 50.7755 23.6316C51.8013 22.0273 52.9809 20.6699 54.3144 19.5593C55.6684 18.4281 57.0737 17.6054 58.5303 17.0912C60.0074 16.5565 61.4948 16.2891 62.9924 16.2891C65.9055 16.2891 68.1828 17.3175 69.824 19.3742C70.3369 18.243 71.0139 17.4512 71.855 16.9987C72.7166 16.5256 73.927 16.2891 75.4862 16.2891C76.1222 16.2891 76.6966 16.3405 77.2095 16.4434C77.7429 16.5462 78.1122 16.649 78.3173 16.7519L78.6251 16.9061C78.0712 17.6671 77.589 19.1891 77.1787 21.472L74.4707 36.8356ZM59.2381 42.3887C60.3049 42.3887 61.3409 41.8745 62.3461 40.8462C63.3514 39.8178 64.2233 38.481 64.9618 36.8356C65.7209 35.1902 66.3671 33.5037 66.9005 31.7761C67.4545 30.0279 67.8955 28.3003 68.2238 26.5932L68.8085 23.6316C67.9263 21.5954 66.5415 20.5773 64.6541 20.5773C63.5668 20.5773 62.4795 20.9784 61.3922 21.7805C60.3254 22.5621 59.3509 23.6418 58.4687 25.0198C57.6071 26.3978 56.8993 28.1563 56.3454 30.2953C55.7915 32.4137 55.5145 34.6966 55.5145 37.1441C55.5145 38.8923 55.8325 40.2086 56.4685 41.093C57.125 41.9568 58.0482 42.3887 59.2381 42.3887Z" fill="url(#paint1_linear_2135_2894)"/>
<path d="M93.6731 25.3283C95.54 22.1816 97.4479 19.8884 99.3969 18.4487C101.366 17.009 103.161 16.2891 104.782 16.2891C106.341 16.2891 107.562 16.721 108.444 17.5848C109.347 18.4281 109.798 19.6415 109.798 21.2252C109.798 22.994 109.306 24.444 108.321 25.5751C107.357 26.7063 106.105 27.2719 104.567 27.2719C104.074 27.2719 103.592 27.2411 103.12 27.1794C102.649 27.1177 102.3 27.056 102.074 26.9943L101.736 26.9017C102.29 25.9351 102.566 24.8861 102.566 23.755C102.566 22.8294 102.125 22.3667 101.243 22.3667C100.033 22.3667 98.5352 23.6007 96.7504 26.0688C95.3553 28.0226 94.186 30.1924 93.2422 32.5782C92.2985 34.9434 91.4779 38.1725 90.7804 42.2653C90.5958 43.3759 90.5034 44.3529 90.5034 45.1961C90.5034 46.0394 90.5445 46.605 90.6265 46.8929L90.7804 47.3248C90.1444 47.695 89.0469 47.8801 87.4877 47.8801C85.1695 47.8801 83.7129 47.4277 83.1179 46.5227C82.523 45.5972 82.4307 43.9621 82.841 41.6175L86.1645 22.305C86.3696 21.1327 86.4722 20.094 86.4722 19.1891C86.4927 18.2636 86.4619 17.6465 86.3799 17.338L86.226 16.8444C86.862 16.4742 87.9595 16.2891 89.5187 16.2891C91.8369 16.2891 93.2935 16.7724 93.8885 17.7391C94.4834 18.6852 94.5757 20.2894 94.1654 22.5518L93.6731 25.3283Z" fill="url(#paint2_linear_2135_2894)"/>
<path d="M132.786 63.9841C132.58 65.1565 132.468 66.1951 132.447 67.1C132.447 68.005 132.498 68.6117 132.601 68.9202L132.724 69.4138C132.088 69.8046 130.99 70 129.431 70C127.113 70 125.646 69.5372 125.031 68.6117C124.436 67.6862 124.344 66.0614 124.754 63.7373L128.6 42.0802C126.036 45.9468 123.082 47.8801 119.738 47.8801C117.009 47.8801 114.783 46.9546 113.06 45.1036C111.337 43.2525 110.475 40.5583 110.475 37.0207C110.475 34.2853 110.783 31.7658 111.398 29.4623C111.993 27.1588 112.793 25.2152 113.799 23.6316C114.824 22.0273 116.004 20.6699 117.338 19.5593C118.692 18.4281 120.097 17.6054 121.553 17.0912C123.031 16.5565 124.518 16.2891 126.016 16.2891C128.929 16.2891 131.226 17.338 132.909 19.4359C133.381 18.2841 134.047 17.4717 134.909 16.9987C135.791 16.5256 137.012 16.2891 138.571 16.2891C139.207 16.2891 139.781 16.3405 140.294 16.4434C140.828 16.5462 141.197 16.649 141.402 16.7519L141.71 16.9061C141.156 17.6671 140.674 19.1891 140.263 21.472L132.786 63.9841ZM122.261 42.3887C123.328 42.3887 124.364 41.8745 125.369 40.8462C126.375 39.8178 127.246 38.481 127.985 36.8356C128.744 35.1902 129.39 33.5037 129.924 31.7761C130.478 30.0279 130.919 28.3003 131.247 26.5932L131.832 23.6316C130.949 21.5954 129.565 20.5773 127.677 20.5773C126.59 20.5773 125.503 20.9784 124.415 21.7805C123.349 22.5621 122.374 23.6418 121.492 25.0198C120.63 26.3978 119.922 28.1563 119.369 30.2953C118.815 32.4137 118.538 34.6966 118.538 37.1441C118.538 38.8923 118.856 40.2086 119.492 41.093C120.148 41.9568 121.071 42.3887 122.261 42.3887Z" fill="url(#paint3_linear_2135_2894)"/>
<path d="M164.02 39.9824C164.02 39.1391 164.041 38.4193 164.082 37.8228C163.097 39.7767 162.153 41.3398 161.251 42.5121C159.917 44.3426 158.532 45.7 157.096 46.5844C155.66 47.4482 154.081 47.8801 152.357 47.8801C150.265 47.8801 148.593 47.2117 147.341 45.8748C146.11 44.5174 145.495 42.7384 145.495 40.5377C145.495 38.3987 145.751 35.8175 146.264 32.7942L148.08 22.305C148.285 21.1327 148.387 20.094 148.387 19.1891C148.408 18.2636 148.377 17.6465 148.295 17.338L148.141 16.8444C148.777 16.4742 149.875 16.2891 151.434 16.2891C153.752 16.2891 155.209 16.7519 155.804 17.6774C156.399 18.5823 156.491 20.2071 156.081 22.5518L153.557 37.1441C153.25 38.8923 153.28 40.2086 153.65 41.093C154.039 41.9568 154.706 42.3887 155.65 42.3887C156.922 42.3887 158.471 40.9799 160.297 38.1622C161.671 36.0643 162.953 33.4832 164.143 30.4187C165.354 27.3336 166.195 24.4131 166.667 21.6571C166.831 20.6288 166.913 19.7135 166.913 18.9114C166.913 18.1093 166.872 17.5643 166.79 17.2763L166.667 16.8444C167.303 16.4742 168.4 16.2891 169.959 16.2891C172.278 16.2891 173.734 16.7519 174.329 17.6774C174.924 18.5823 175.016 20.2071 174.606 22.5518L172.144 36.8356C171.549 40.5377 172.452 42.3887 174.852 42.3887C175.981 42.3887 177.16 41.8951 178.391 40.9079C179.643 39.9001 180.668 38.5632 181.468 36.8973C181.899 36.8973 182.228 37.031 182.453 37.2984C182.679 37.5657 182.751 37.9771 182.669 38.5324C182.546 39.2317 182.279 39.9927 181.869 40.8153C181.458 41.6175 180.894 42.4401 180.176 43.2834C179.479 44.1061 178.699 44.8671 177.837 45.5663C176.976 46.245 175.981 46.8004 174.852 47.2323C173.724 47.6642 172.575 47.8801 171.406 47.8801C169.19 47.8801 167.405 47.1911 166.051 45.8131C164.697 44.4146 164.02 42.471 164.02 39.9824Z" fill="url(#paint4_linear_2135_2894)"/>
<path d="M199.655 2.89996C200.291 1.89217 201.03 1.16204 201.871 0.709564C202.712 0.236521 203.851 0 205.287 0C205.984 0 206.641 0.0514177 207.256 0.154253C207.892 0.257088 208.354 0.359924 208.641 0.462759L209.072 0.617012L200.425 9.65624C199.44 10.7052 198.281 11.2296 196.947 11.2296C196.475 11.2296 196.045 11.1988 195.655 11.1371C195.286 11.0548 195.029 10.9828 194.886 10.9211L194.639 10.7977L199.655 2.89996ZM194.424 47.8801C190.218 47.8801 186.792 46.6564 184.146 44.2089C181.52 41.7614 180.207 38.4398 180.207 34.2442C180.207 31.5499 180.699 29.051 181.684 26.7475C182.648 24.444 183.92 22.5518 185.5 21.071C187.1 19.5696 188.895 18.3972 190.885 17.554C192.896 16.7107 194.957 16.2891 197.07 16.2891C200.066 16.2891 202.312 16.937 203.81 18.2327C205.328 19.5284 206.087 21.071 206.087 22.8603C206.087 28.3723 200.189 32.2492 188.392 34.491C188.577 36.9384 189.469 38.954 191.07 40.5377C192.69 42.1008 194.803 42.8823 197.409 42.8823C199.009 42.8823 200.507 42.7075 201.902 42.3579C203.297 41.9877 204.487 41.4941 205.471 40.877C206.456 40.26 207.287 39.6224 207.964 38.9643C208.641 38.3062 209.215 37.6172 209.687 36.8973C210.59 36.8973 210.929 37.4423 210.703 38.5324C210.58 39.1083 210.252 39.787 209.718 40.5685C209.205 41.3501 208.456 42.1728 207.472 43.0366C206.507 43.8798 205.41 44.6614 204.179 45.3812C202.948 46.1011 201.471 46.6975 199.748 47.1706C198.024 47.6436 196.25 47.8801 194.424 47.8801ZM197.132 19.4359C196.209 19.4359 195.275 19.7032 194.332 20.238C193.408 20.7727 192.537 21.5337 191.716 22.5209C190.895 23.4876 190.188 24.7627 189.593 26.3464C188.998 27.9095 188.618 29.6371 188.454 31.5293C192.126 30.6655 194.855 29.3595 196.64 27.6113C198.445 25.8425 199.348 23.8578 199.348 21.6571C199.348 20.999 199.142 20.4642 198.732 20.0529C198.322 19.6415 197.788 19.4359 197.132 19.4359Z" fill="url(#paint5_linear_2135_2894)"/>
<path d="M235.66 36.8356C235.311 38.6866 235.383 40.0749 235.875 41.0004C236.368 41.926 237.198 42.3887 238.368 42.3887C239.496 42.3887 240.676 41.8951 241.907 40.9079C243.158 39.9001 244.184 38.5632 244.984 36.8973C245.415 36.8973 245.743 37.031 245.969 37.2984C246.194 37.5657 246.266 37.9771 246.184 38.5324C246.061 39.2317 245.794 39.9927 245.384 40.8153C244.974 41.6175 244.41 42.4401 243.692 43.2834C242.994 44.1061 242.214 44.8671 241.353 45.5663C240.491 46.245 239.496 46.8004 238.368 47.2323C237.239 47.6642 236.091 47.8801 234.921 47.8801C232.808 47.8801 231.085 47.2528 229.751 45.9982C228.418 44.7436 227.679 42.9954 227.536 40.7536C226.264 43.0777 224.797 44.8465 223.135 46.0599C221.473 47.2734 219.73 47.8801 217.904 47.8801C215.175 47.8801 212.949 46.9546 211.226 45.1036C209.503 43.2525 208.641 40.5583 208.641 37.0207C208.641 34.2853 208.949 31.7658 209.564 29.4623C210.159 27.1588 210.959 25.2152 211.965 23.6316C212.99 22.0273 214.17 20.6699 215.503 19.5593C216.857 18.4281 218.263 17.6054 219.719 17.0912C221.196 16.5565 222.684 16.2891 224.181 16.2891C227.095 16.2891 229.372 17.3175 231.013 19.3742C231.526 18.243 232.203 17.4512 233.044 16.9987C233.906 16.5256 235.116 16.2891 236.675 16.2891C237.311 16.2891 237.886 16.3405 238.399 16.4434C238.932 16.5462 239.301 16.649 239.506 16.7519L239.814 16.9061C239.26 17.6671 238.778 19.1891 238.368 21.472L235.66 36.8356ZM220.427 42.3887C221.494 42.3887 222.53 41.8745 223.535 40.8462C224.54 39.8178 225.412 38.481 226.151 36.8356C226.91 35.1902 227.556 33.5037 228.09 31.7761C228.644 30.0279 229.085 28.3003 229.413 26.5932L229.998 23.6316C229.115 21.5954 227.731 20.5773 225.843 20.5773C224.756 20.5773 223.669 20.9784 222.581 21.7805C221.514 22.5621 220.54 23.6418 219.658 25.0198C218.796 26.3978 218.088 28.1563 217.534 30.2953C216.981 32.4137 216.704 34.6966 216.704 37.1441C216.704 38.8923 217.022 40.2086 217.658 41.093C218.314 41.9568 219.237 42.3887 220.427 42.3887Z" fill="url(#paint6_linear_2135_2894)"/>
<path d="M289.082 42.3887C290.333 42.3887 291.544 41.9054 292.713 40.9387C293.882 39.9515 294.877 38.6044 295.698 36.8973C296.129 36.8973 296.457 37.031 296.683 37.2984C296.908 37.5657 296.98 37.9771 296.898 38.5324C296.754 39.3551 296.365 40.2909 295.729 41.3398C295.093 42.3887 294.303 43.4068 293.359 44.394C292.415 45.3812 291.267 46.2142 289.913 46.8929C288.559 47.5511 287.194 47.8801 285.82 47.8801C283.461 47.8801 281.594 47.1603 280.219 45.7206C278.865 44.2809 278.188 42.3682 278.188 39.9824C278.188 39.0157 278.506 36.6197 279.142 32.7942L280.311 25.8219C280.763 23.1688 280.26 21.8422 278.804 21.8422C277.757 21.8422 276.578 22.7472 275.265 24.5571C273.952 26.367 272.7 28.835 271.51 31.9612C270.341 35.0668 269.438 38.3679 268.802 41.8643C268.597 43.0366 268.484 44.0855 268.464 45.011C268.464 45.916 268.515 46.5227 268.618 46.8312L268.741 47.3248C268.105 47.695 267.007 47.8801 265.448 47.8801C263.13 47.8801 261.673 47.4277 261.078 46.5227C260.483 45.5972 260.391 43.9621 260.801 41.6175L263.571 25.8219C263.817 24.4645 263.827 23.467 263.602 22.8294C263.376 22.1713 262.884 21.8422 262.125 21.8422C261.078 21.8422 259.909 22.6855 258.616 24.372C257.345 26.0379 256.093 28.434 254.862 31.5602C253.652 34.6864 252.708 38.1211 252.031 41.8643C251.826 43.0366 251.713 44.0855 251.693 45.011C251.693 45.916 251.734 46.5227 251.816 46.8312L251.969 47.3248C251.334 47.695 250.236 47.8801 248.677 47.8801C246.359 47.8801 244.902 47.4277 244.307 46.5227C243.712 45.5972 243.62 43.9621 244.03 41.6175L247.354 22.305C247.559 21.1327 247.661 20.094 247.661 19.1891C247.682 18.2636 247.651 17.6465 247.569 17.338L247.415 16.8444C248.051 16.4742 249.149 16.2891 250.708 16.2891C253.026 16.2891 254.483 16.7519 255.078 17.6774C255.673 18.5823 255.765 20.2071 255.355 22.5518L255.108 24.0635C255.888 22.7472 256.75 21.5543 257.693 20.4848C258.637 19.3947 259.796 18.4281 261.171 17.5848C262.545 16.721 263.909 16.2891 265.263 16.2891C267.253 16.2891 268.843 16.8753 270.033 18.0476C271.223 19.2199 271.818 20.8242 271.818 22.8603C271.818 23.0043 271.808 23.2305 271.787 23.539C271.767 23.8475 271.757 24.084 271.757 24.2486C272.967 22.1096 274.485 20.2483 276.311 18.6646C278.137 17.0809 280.065 16.2891 282.096 16.2891C284.066 16.2891 285.635 16.8856 286.805 18.0784C287.994 19.2508 288.589 20.8242 288.589 22.7986C288.589 23.8269 288.394 25.534 288.005 27.9198L286.497 36.8356C285.881 40.5377 286.743 42.3887 289.082 42.3887Z" fill="url(#paint7_linear_2135_2894)"/>
<path d="M308.653 47.8801C304.448 47.8801 301.022 46.6564 298.375 44.2089C295.749 41.7614 294.436 38.4398 294.436 34.2442C294.436 31.5499 294.929 29.051 295.913 26.7475C296.878 24.444 298.15 22.5518 299.729 21.071C301.329 19.5696 303.125 18.3972 305.114 17.554C307.125 16.7107 309.187 16.2891 311.3 16.2891C314.295 16.2891 316.542 16.937 318.039 18.2327C319.557 19.5284 320.316 21.071 320.316 22.8603C320.316 28.3723 314.418 32.2492 302.622 34.491C302.807 36.9384 303.699 38.954 305.299 40.5377C306.92 42.1008 309.033 42.8823 311.638 42.8823C313.239 42.8823 314.736 42.7075 316.131 42.3579C317.526 41.9877 318.716 41.4941 319.701 40.877C320.686 40.26 321.517 39.6224 322.194 38.9643C322.871 38.3062 323.445 37.6172 323.917 36.8973C324.819 36.8973 325.158 37.4423 324.932 38.5324C324.809 39.1083 324.481 39.787 323.948 40.5685C323.435 41.3501 322.686 42.1728 321.701 43.0366C320.737 43.8798 319.639 44.6614 318.408 45.3812C317.178 46.1011 315.7 46.6975 313.977 47.1706C312.254 47.6436 310.479 47.8801 308.653 47.8801ZM311.361 19.4359C310.438 19.4359 309.505 19.7032 308.561 20.238C307.638 20.7727 306.766 21.5337 305.945 22.5209C305.125 23.4876 304.417 24.7627 303.822 26.3464C303.227 27.9095 302.848 29.6371 302.683 31.5293C306.356 30.6655 309.084 29.3595 310.869 27.6113C312.674 25.8425 313.577 23.8578 313.577 21.6571C313.577 20.999 313.372 20.4642 312.962 20.0529C312.551 19.6415 312.018 19.4359 311.361 19.4359Z" fill="url(#paint8_linear_2135_2894)"/>
<defs>
<linearGradient id="paint0_linear_2135_2894" x1="163.005" y1="-19.897" x2="163.005" y2="69.7066" gradientUnits="userSpaceOnUse">
<stop offset="0.275" stop-color="#00A1FF"/>
<stop offset="0.6" stop-color="#003099"/>
</linearGradient>
<linearGradient id="paint1_linear_2135_2894" x1="163.005" y1="-19.897" x2="163.005" y2="69.7066" gradientUnits="userSpaceOnUse">
<stop offset="0.37" stop-color="#00A1FF"/>
<stop offset="0.695" stop-color="#003099"/>
</linearGradient>
<linearGradient id="paint2_linear_2135_2894" x1="163.005" y1="-19.897" x2="163.005" y2="69.7066" gradientUnits="userSpaceOnUse">
<stop offset="0.37" stop-color="#00A1FF"/>
<stop offset="0.695" stop-color="#003099"/>
</linearGradient>
<linearGradient id="paint3_linear_2135_2894" x1="163.005" y1="-19.897" x2="163.005" y2="69.7066" gradientUnits="userSpaceOnUse">
<stop offset="0.37" stop-color="#00A1FF"/>
<stop offset="0.695" stop-color="#003099"/>
</linearGradient>
<linearGradient id="paint4_linear_2135_2894" x1="163.005" y1="-19.897" x2="163.005" y2="69.7066" gradientUnits="userSpaceOnUse">
<stop offset="0.37" stop-color="#00A1FF"/>
<stop offset="0.695" stop-color="#003099"/>
</linearGradient>
<linearGradient id="paint5_linear_2135_2894" x1="163.005" y1="-19.897" x2="163.005" y2="69.7066" gradientUnits="userSpaceOnUse">
<stop offset="0.37" stop-color="#00A1FF"/>
<stop offset="0.695" stop-color="#003099"/>
</linearGradient>
<linearGradient id="paint6_linear_2135_2894" x1="163.005" y1="-19.897" x2="163.005" y2="69.7066" gradientUnits="userSpaceOnUse">
<stop offset="0.37" stop-color="#00A1FF"/>
<stop offset="0.695" stop-color="#003099"/>
</linearGradient>
<linearGradient id="paint7_linear_2135_2894" x1="163.005" y1="-19.897" x2="163.005" y2="69.7066" gradientUnits="userSpaceOnUse">
<stop offset="0.37" stop-color="#00A1FF"/>
<stop offset="0.695" stop-color="#003099"/>
</linearGradient>
<linearGradient id="paint8_linear_2135_2894" x1="163.005" y1="-19.897" x2="163.005" y2="69.7066" gradientUnits="userSpaceOnUse">
<stop offset="0.37" stop-color="#00A1FF"/>
<stop offset="0.695" stop-color="#003099"/>
</linearGradient>
</defs>
</svg>
