<svg width="40" height="41" viewBox="0 0 40 41" fill="none" xmlns="http://www.w3.org/2000/svg">
<path d="M18.8521 26.1322C19.6624 26.2745 20.6797 26.3457 21.9041 26.3457C24.9831 26.3457 27.4859 25.2157 29.4126 22.9557C31.3392 20.678 32.3025 17.804 32.3025 14.334C32.3025 10.8639 31.1231 8.11458 28.7643 6.08594C26.4236 4.0395 22.9395 3.01628 18.312 3.01628C16.3133 3.01628 14.5487 3.22982 13.0182 3.6569C11.4877 4.08398 10.2813 4.64453 9.39905 5.33854C8.53477 6.03255 7.88656 6.77995 7.45442 7.58073C7.02228 8.36372 6.80621 9.17339 6.80621 10.0098C6.80621 10.775 7.00428 11.3889 7.40041 11.8516C7.79653 12.2964 8.33671 12.5189 9.02093 12.5189C9.20099 12.5189 9.37205 12.51 9.5341 12.4922C9.69615 12.4566 9.80419 12.421 9.8582 12.3854L9.96624 12.3587C10.0023 12.4655 10.0203 12.6257 10.0203 12.8392C10.0203 13.5866 9.64213 14.2895 8.88589 14.9479C8.12964 15.5885 7.10331 15.9089 5.80689 15.9089C4.02431 15.9089 2.61085 15.4106 1.56651 14.4141C0.52217 13.4175 0 12.0918 0 10.4368C0 9.33355 0.234076 8.28364 0.702228 7.28711C1.15237 6.27279 1.87261 5.32075 2.86293 4.43099C3.85325 3.54123 5.05964 2.76714 6.48211 2.10872C7.90457 1.4503 9.64213 0.934245 11.6948 0.560547C13.7475 0.186849 16.0072 0 18.474 0C22.2192 0 25.4963 0.373698 28.3052 1.12109C31.1141 1.85069 33.3558 2.89171 35.0304 4.24414C36.7049 5.57878 37.9473 7.11806 38.7576 8.86198C39.5859 10.5881 40 12.5189 40 14.6543C40 18.9963 38.4695 22.5375 35.4085 25.278C32.3475 28.0007 28.2872 29.362 23.2276 29.362C21.571 29.362 19.9505 29.2285 18.366 28.9616L17.2586 35.2611C17.0605 36.4 16.9525 37.4054 16.9345 38.2773C16.9345 39.1315 16.9795 39.7099 17.0695 40.0124L17.2046 40.4661C16.6104 40.8221 15.5571 41 14.0446 41C12.0459 41 10.7585 40.5551 10.1823 39.6654C9.62413 38.7756 9.5341 37.2363 9.91222 35.0475L14.0446 11.4779C14.2426 10.3568 14.3417 9.36914 14.3417 8.51497C14.3597 7.66081 14.3237 7.08247 14.2336 6.77995L14.0986 6.35286C14.6928 5.97917 15.7461 5.79232 17.2586 5.79232C19.2573 5.79232 20.5447 6.24609 21.1209 7.15365C21.6971 8.0434 21.7961 9.57378 21.418 11.7448L18.8521 26.1322Z" fill="white"/>
</svg>
